<svg xmlns="http://www.w3.org/2000/svg" width="15" height="15" viewBox="0 0 15 15"><g><g><path d="M13.075-.001c1.06 0 1.925.784 1.925 1.925v11.15C15 14.217 14.134 15 13.075 15H1.925c-1.06 0-1.926-.784-1.926-1.925V1.925C0 .782.865-.002 1.925-.002zM10.252 2.34v1.616c0 .372.304.676.675.676h1.696a.677.677 0 0 0 .675-.676V2.341a.677.677 0 0 0-.675-.675h-1.696a.677.677 0 0 0-.675.675zm1.733 4.002c.124.407.192.84.192 1.286 0 2.496-2.088 4.519-4.663 4.519s-4.663-2.023-4.663-4.519c0-.446.068-.879.193-1.286H1.666v6.336c0 .328.269.597.597.597h10.446a.598.598 0 0 0 .596-.597V6.343zM7.514 4.548C5.85 4.548 4.5 5.855 4.5 7.467s1.35 2.919 3.013 2.919c1.664 0 3.013-1.307 3.013-2.92 0-1.611-1.349-2.918-3.013-2.918z"/></g></g></svg>