<svg xmlns="http://www.w3.org/2000/svg" width="14" height="11" viewBox="0 0 14 11"><g><g><path d="M14 1.297c-.516.22-1.07.37-1.65.437A2.804 2.804 0 0 0 13.613.197c-.556.318-1.17.55-1.824.674a2.913 2.913 0 0 0-2.097-.877c-1.586 0-2.872 1.244-2.872 2.778 0 .217.025.43.074.633A8.246 8.246 0 0 1 .974.503C.727.913.585 1.39.585 1.899c0 .964.507 1.814 1.278 2.312a2.935 2.935 0 0 1-1.3-.347l-.001.035c0 1.346.99 2.468 2.304 2.723a2.952 2.952 0 0 1-1.297.048c.365 1.103 1.426 1.906 2.683 1.93A5.886 5.886 0 0 1 .685 9.787 5.88 5.88 0 0 1 0 9.75 8.326 8.326 0 0 0 4.403 11c5.282 0 8.171-4.234 8.171-7.905a7.8 7.8 0 0 0-.008-.36A5.712 5.712 0 0 0 14 1.297z"/></g></g></svg>