<svg xmlns="http://www.w3.org/2000/svg" width="14" height="14"><path d="M14.008 7a6.995 6.995 0 01-7 6.992c-3.866 0-7-3.13-7-6.993 0-3.861 3.134-6.991 7-6.991s7 3.13 7 6.991zM8.36 5.531c.17.363.328.742.48 1.128 1.213-.114 2.722-.115 3.983-.048a5.792 5.792 0 00-1.375-3.383c-.612.904-1.689 1.698-3.088 2.303zM5.573 1.358c.831.851 1.61 1.929 2.289 3.18 1.24-.526 2.233-1.222 2.867-2.024a5.81 5.81 0 00-5.156-1.156zM1.357 5.563c.297.017.597.03.901.03 1.61 0 3.12-.232 4.436-.632-.691-1.248-1.483-2.317-2.325-3.152a5.837 5.837 0 00-3.012 3.754zM1.174 7c0 1.476.554 2.819 1.459 3.846.858-1.643 2.439-3.002 4.448-3.842.144-.06.322-.111.522-.157a18.502 18.502 0 00-.394-.886c-1.468.47-3.18.755-5.017.779-.34.003-.676-.003-1.007-.018-.005.093-.01.186-.01.278zm7.899 5.445a20.895 20.895 0 00-1.097-4.636c-.25.055-.468.117-.634.192-1.748.791-3.133 2.062-3.909 3.598a5.806 5.806 0 005.64.846zm3.73-4.8a25.103 25.103 0 00-3.605 0c.152.45.295.908.419 1.38.255.977.434 1.938.543 2.874a5.824 5.824 0 002.643-4.254z"/></svg>