<svg xmlns="http://www.w3.org/2000/svg" width="16" height="15"><path d="M8.095.654s3.447-.131 4.07 3.097c.017 1.562-.031 2.714-.031 2.714s.01.569.743.296c.733-.275 1.018-.34 1.215-.012.197.329.044.712-.449.865-.492.153-1.379.219-1.379.995 0 .777 1.193 2.55 2.977 3.097.437.088.722.208.405.493-.318.285-1.029.482-1.51.547-.482.065-.45.131-.548.504-.098.371-.032.689-.558.557-.525-.13-1.532-.371-2.122.066-.832.482-1.335 1.236-2.835 1.236-1.947 0-2.385-1.411-3.556-1.411-1.182-.066-1.773.34-1.871-.032-.186-.603 0-.887-.7-.93-.7-.045-1.292-.307-1.5-.581-.207-.274-.123-.324.504-.482 1.083-.273 2.024-1.378 2.44-1.936.416-.558.897-1.488-.153-1.86-1.05-.373-1.51-.646-1.204-1.106.285-.361.82-.186 1.116-.01.296.174.908.155.832-.526-.12-1.072-.088-2.342-.088-2.342S4.38.654 8.095.654z"/></svg>